<svg width="23" height="33" viewBox="0 0 23 33" fill="none" xmlns="http://www.w3.org/2000/svg"><path d="M.532 29.993c0 .62.2 1.446.801 2.065.602.62 1.203.826 2.004.826 1.002 0 1.603-.207 2.204-.62.601-.413.802-1.032.802-1.858 0-.825-.2-1.651-.4-2.064-.402-.413-1.003-.62-2.005-.62-.6 0-1.402.207-2.204.62-.801.206-1.202.826-1.202 1.651zm16.43-24.155c2.004-3.303 1.604-5.78 1.604-5.78s-5.61-.207-8.015 1.858c-2.204 1.858-2.605 4.955-1.603 6.4-.802.826-1.804 1.445-2.806 1.858.2-4.336.2-6.4.2-6.607-1.001-.619-1.803-.825-2.604-.825-1.002 0-1.603.206-2.405.825l-.2.62v18.375c0 2.27.802 3.509 2.204 3.509 1.603 0 2.405-1.239 2.405-3.51v-1.858c.801-1.652 1.803-2.684 2.805-3.51.801 1.239 4.007 3.716 7.814 2.89 3.006-.619 6.613-4.954 6.613-4.954s-5.811-4.749-10.42-4.13c-2.604.62-4.207 3.51-4.207 5.162-1.002.62-1.804 1.239-2.405 2.065 0-1.446 0-3.304.2-5.575v-1.238c1.403-.62 2.605-1.446 3.607-2.478 2.204 1.032 5.811-.62 7.214-3.097z" fill="#fff"/></svg>