<svg width="18" height="20" viewBox="0 0 18 20" fill="none" xmlns="http://www.w3.org/2000/svg"><path fill-rule="evenodd" clip-rule="evenodd" d="M17.368 19.503a.946.946 0 01-.063-.198c-.43-1.282-1.246-2.235-2.259-3.183-1.352.993-5.253 2.517-9.043.976C3.011 15.864.13 11.564.13 11.564s7.408-3.042 12.183-1.519c2.79 1.077 3.656 3.802 3.49 4.934.604.472 1.098.946 1.565 1.488v3.036zm0-7.991a9.42 9.42 0 01-2.112-2.006c-2.75.374-6.164-1.82-7.016-4.06C6.963 2.082 7.894.13 7.894.13s6.142 1.014 8.176 3.233c1.635 2.066 1.51 4.648.162 5.802.299.35.703.696 1.136 1.043v1.304z" fill="#fff"/></svg>